<?xml version="1.0" encoding="UTF-8"?>
<svg version="1.1" xmlns="http://www.w3.org/2000/svg" width="500" height="125">
<path d="M0 0 C165 0 330 0 500 0 C500 41.25 500 82.5 500 125 C335 125 170 125 0 125 C0 83.75 0 42.5 0 0 Z " fill="#FEFEFE" transform="translate(0,0)"/>
<path d="M0 0 C9.51236461 2.10052215 19.57949777 1.63114959 29.01953125 -0.53515625 C36.75857616 -2.06243045 43.15900443 -1.50323318 50.078125 2.375 C55.36352129 6.11432799 59.45951704 10.75894285 61.375 17 C62.3088608 27.74546318 60.82599012 37.57376741 58.375 48 C58.03482842 49.66528442 57.69865904 51.33142764 57.375 53 C58.86 53.99 58.86 53.99 60.375 55 C59.14458984 54.96221436 57.91417969 54.92442871 56.64648438 54.88549805 C52.05401597 54.76187955 47.46412139 54.72485802 42.87011719 54.71313477 C40.88735704 54.69616461 38.90464854 54.65612327 36.92285156 54.59204102 C25.36892993 53.87086781 25.36892993 53.87086781 15.40209961 58.58959961 C13.24181761 61.98785545 11.7629772 65.22444258 10.375 69 C9.94268066 69.99136963 9.51036133 70.98273926 9.06494141 72.00415039 C7.91642454 74.70474902 6.90884528 77.41886303 5.9375 80.1875 C5.27256587 82.01447964 4.60722254 83.84131042 3.94140625 85.66796875 C3.66240479 86.45453857 3.38340332 87.2411084 3.09594727 88.05151367 C2.375 90 2.375 90 1.375 92 C-1.9038849 92.53532815 -4.45373753 92.8045588 -7.296875 90.8515625 C-14.33415214 83.44566608 -26.625 65.55288369 -26.625 55 C-27.615 54.67 -28.605 54.34 -29.625 54 C-29.625 53.01 -29.625 52.02 -29.625 51 C-30.23354552 48.90547122 -30.88506965 46.82327437 -31.5625 44.75 C-34.92690232 33.97915724 -36.95851515 22.4371374 -31.625 12 C-28.27910172 5.90568528 -24.0111936 2.58022368 -17.8125 -0.3125 C-11.7606565 -1.61779958 -6.01245964 -1.41707803 0 0 Z " fill="#EAE6E5" transform="translate(58.625,20)"/>
<path d="M0 0 C-0.50789063 0.268125 -1.01578125 0.53625 -1.5390625 0.8125 C-7.86678147 4.41479694 -12.65485673 8.96457019 -15 16 C-15.8270469 27.09424347 -14.88717717 36.47245377 -11.09375 46.9375 C-10 50 -10 50 -10 52 C-9.34 52 -8.68 52 -8 52 C-8 46.72 -8 41.44 -8 36 C-3 35 -3 35 -1 36 C-0.67 36.99 -0.34 37.98 0 39 C0.598125 38.814375 1.19625 38.62875 1.8125 38.4375 C4 38 4 38 7 39 C7.33 37.68 7.66 36.36 8 35 C11 35 14 35 17 35 C17 34.34 17 33.68 17 33 C17.99 33 18.98 33 20 33 C20 31.35 20 29.7 20 28 C26.75 26.875 26.75 26.875 29 28 C29.625 31.0625 29.625 31.0625 30 34 C31.65 34 33.3 34 35 34 C35.33 32.35 35.66 30.7 36 29 C37.65 29 39.3 29 41 29 C41 32.96 41 36.92 41 41 C41.66 41 42.32 41 43 41 C43 38.36 43 35.72 43 33 C44.98 32.67 46.96 32.34 49 32 C49 34.64 49 37.28 49 40 C51.94727535 39.89830839 51.94727535 39.89830839 55 39 C56.45291273 36.53744315 56.45291273 36.53744315 57 34 C57.99 34 58.98 34 60 34 C60 36.64 60 39.28 60 42 C61.65 42.33 63.3 42.66 65 43 C65 44.32 65 45.64 65 47 C65.66 47 66.32 47 67 47 C67 48.98 67 50.96 67 53 C69.31 53 71.62 53 74 53 C74 53.33 74 53.66 74 54 C72.76958984 53.96221436 71.53917969 53.92442871 70.27148438 53.88549805 C65.67901597 53.76187955 61.08912139 53.72485802 56.49511719 53.71313477 C54.51235704 53.69616461 52.52964854 53.65612327 50.54785156 53.59204102 C38.99392993 52.87086781 38.99392993 52.87086781 29.02709961 57.58959961 C26.86681761 60.98785545 25.3879772 64.22444258 24 68 C23.56768066 68.99136963 23.13536133 69.98273926 22.68994141 71.00415039 C21.54142454 73.70474902 20.53384528 76.41886303 19.5625 79.1875 C18.89756587 81.01447964 18.23222254 82.84131042 17.56640625 84.66796875 C17.28740479 85.45453857 17.00840332 86.2411084 16.72094727 87.05151367 C16 89 16 89 15 91 C11.7211151 91.53532815 9.17126247 91.8045588 6.328125 89.8515625 C-0.70915214 82.44566608 -13 64.55288369 -13 54 C-13.99 53.67 -14.98 53.34 -16 53 C-16 52.01 -16 51.02 -16 50 C-16.60854552 47.90547122 -17.26006965 45.82327437 -17.9375 43.75 C-21.30190232 32.97915724 -23.33351515 21.4371374 -18 11 C-14.44024921 4.51616821 -7.95321256 -2.46823838 0 0 Z " fill="#39BFB4" transform="translate(45,21)"/>
<path d="M0 0 C1.03962891 0.00322266 2.07925781 0.00644531 3.15039062 0.00976562 C4.66922852 -0.0144043 4.66922852 -0.0144043 6.21875 -0.0390625 C14.0461814 -0.0441092 21.967723 0.71722401 28.02539062 6.19726562 C28.57066406 6.6690625 29.1159375 7.14085937 29.67773438 7.62695312 C34.36272599 13.25932532 33.62132166 20.42100156 33.08789062 27.32226562 C32.2544953 31.46319863 30.86102763 34.48091065 27.96289062 37.63476562 C19.91528979 42.35835742 12.27378077 42.74257182 3.08789062 42.57226562 C1.94449219 42.56710938 0.80109375 42.56195313 -0.37695312 42.55664062 C-8.75745376 42.47692124 -8.75745376 42.47692124 -9.91210938 41.32226562 C-10.02560098 38.46132345 -10.07629429 35.62543107 -10.08007812 32.76367188 C-10.08340652 31.90418442 -10.08673492 31.04469696 -10.09016418 30.15916443 C-10.09523708 28.33747901 -10.0975724 26.51578427 -10.09741211 24.6940918 C-10.0995974 21.90007273 -10.11774582 19.10644906 -10.13671875 16.3125 C-10.13965278 14.54622532 -10.14163751 12.77994875 -10.14257812 11.01367188 C-10.14976364 10.17405411 -10.15694916 9.33443634 -10.16435242 8.46937561 C-10.13088456 0.01241575 -7.57615021 0.05422098 0 0 Z " fill="#073376" transform="translate(146.912109375,38.677734375)"/>
<path d="M0 0 C-0.50789063 0.268125 -1.01578125 0.53625 -1.5390625 0.8125 C-7.86678147 4.41479694 -12.65485673 8.96457019 -15 16 C-15.82528389 27.07059388 -14.89603351 36.40456745 -11.09375 46.83984375 C-10 50 -10 50 -10 53 C17.72 53 45.44 53 74 53 C74 53.33 74 53.66 74 54 C72.76958984 53.96221436 71.53917969 53.92442871 70.27148438 53.88549805 C65.67901597 53.76187955 61.08912139 53.72485802 56.49511719 53.71313477 C54.51235704 53.69616461 52.52964854 53.65612327 50.54785156 53.59204102 C38.99392993 52.87086781 38.99392993 52.87086781 29.02709961 57.58959961 C26.86681761 60.98785545 25.3879772 64.22444258 24 68 C23.56768066 68.99136963 23.13536133 69.98273926 22.68994141 71.00415039 C21.54142454 73.70474902 20.53384528 76.41886303 19.5625 79.1875 C18.89756587 81.01447964 18.23222254 82.84131042 17.56640625 84.66796875 C17.28740479 85.45453857 17.00840332 86.2411084 16.72094727 87.05151367 C16 89 16 89 15 91 C11.7211151 91.53532815 9.17126247 91.8045588 6.328125 89.8515625 C-0.70915214 82.44566608 -13 64.55288369 -13 54 C-13.99 53.67 -14.98 53.34 -16 53 C-16 52.01 -16 51.02 -16 50 C-16.60854552 47.90547122 -17.26006965 45.82327437 -17.9375 43.75 C-21.30190232 32.97915724 -23.33351515 21.4371374 -18 11 C-14.44024921 4.51616821 -7.95321256 -2.46823838 0 0 Z " fill="#3E5E6D" transform="translate(45,21)"/>
<path d="M0 0 C0.70745361 0.00563965 1.41490723 0.0112793 2.14379883 0.01708984 C8.19608052 0.15801905 12.92349529 0.63272198 17.70703125 4.63671875 C20.18044412 7.23278019 21.09691346 9.06440227 21.5 12.625 C21.125 15.3125 21.125 15.3125 20.125 16.3125 C16.875 16.75 16.875 16.75 13.125 16.3125 C12.02285156 14.83136719 12.02285156 14.83136719 10.8984375 13.3203125 C8.60938485 10.38103999 8.24909589 10.33459756 4.2421875 9.62109375 C2.82752198 9.63294849 1.41281277 9.67665726 0 9.75 C-0.71542969 9.75193359 -1.43085938 9.75386719 -2.16796875 9.75585938 C-4.98458736 9.82693293 -7.32710179 10.02275661 -9.83984375 11.3515625 C-11.51175949 14.51873874 -11.34689355 17.75749144 -11.3125 21.25 C-11.33248047 21.96607422 -11.35246094 22.68214844 -11.37304688 23.41992188 C-11.36994589 26.76588656 -11.10984605 28.94871887 -9.28125 31.78125 C-4.39600279 34.89004368 1.57844439 34.09361256 7.125 33.3125 C9.72875924 31.90407933 10.4404158 30.8393763 12.125 28.3125 C14.125 26.3125 14.125 26.3125 17.125 26.0625 C20.125 26.3125 20.125 26.3125 22.125 28.3125 C22.1934442 31.87159822 21.98930604 34.31777438 19.59765625 37.0703125 C13.56757658 42.34822579 8.71587256 42.54503044 0.9375 42.625 C-0.44405273 42.66850586 -0.44405273 42.66850586 -1.85351562 42.71289062 C-8.02661208 42.76984609 -12.77161162 41.93829597 -17.875 38.3125 C-22.64226602 33.58974825 -23.31472737 28.81670348 -23.375 22.25 C-23.38144531 21.57743164 -23.38789063 20.90486328 -23.39453125 20.21191406 C-23.23054341 13.76277677 -21.6634007 9.1009007 -17.0625 4.5 C-11.5916808 0.74551623 -6.53882219 -0.05414853 0 0 Z " fill="#59A7A9" transform="translate(374.875,38.6875)"/>
<path d="M0 0 C3.36562216 2.40401583 5.43327028 4.32955486 7.625 7.875 C7.625 11.175 7.625 14.475 7.625 17.875 C0.035 17.875 -7.555 17.875 -15.375 17.875 C-14.03936384 22.81963635 -14.03936384 22.81963635 -11.375 23.875 C-7.2851774 24.18430917 -7.2851774 24.18430917 -3.5 22.875 C-0.16204498 21.30419764 2.96501139 21.75300038 6.625 21.875 C6.5 24.6875 6.5 24.6875 5.625 27.875 C1.0743 30.85313395 -3.06217571 31.36742582 -8.375 31.3125 C-9.40367187 31.3424707 -9.40367187 31.3424707 -10.453125 31.37304688 C-15.56857305 31.36816572 -18.44137601 30.06886784 -22.375 26.875 C-26.03750233 22.11374697 -25.99190093 16.82026085 -25.859375 11.015625 C-25.24309618 7.01975267 -23.96269997 4.9890607 -21.17578125 2.14453125 C-14.90633501 -2.27536035 -7.10586956 -2.36862319 0 0 Z " fill="#043074" transform="translate(209.375,50.125)"/>
<path d="M0 0 C6.0546875 -0.1953125 6.0546875 -0.1953125 8 0 C10.5732519 2.5732519 10.94523529 4.75914102 11.9375 8.25 C13.22627872 12.77898758 14.59737525 16.92938764 17 21 C17.99 21.33 18.98 21.66 20 22 C20.12375 21.15953125 20.2475 20.3190625 20.375 19.453125 C21.03635753 15.79912467 21.96802149 12.31639632 23 8.75 C23.350625 7.52796875 23.70125 6.3059375 24.0625 5.046875 C25 2 25 2 26 0 C28.97 0 31.94 0 35 0 C34.26760991 6.29149559 32.77505499 12.31182257 31.1875 18.4375 C30.93935547 19.43587891 30.69121094 20.43425781 30.43554688 21.46289062 C28.60300007 28.55526642 26.76589345 35.05311688 21.671875 40.48046875 C18.3161298 42.38892618 16.0871395 42.43837901 12.25 42.3125 C10.52523438 42.27576172 10.52523438 42.27576172 8.765625 42.23828125 C6 42 6 42 5 41 C4.875 38.5 4.875 38.5 5 36 C6.58272601 34.41727399 8.38034003 34.65264253 10.5625 34.4375 C11.38878906 34.35371094 12.21507812 34.26992187 13.06640625 34.18359375 C13.70449219 34.12300781 14.34257812 34.06242187 15 34 C15.66 32.35 16.32 30.7 17 29 C16.278125 29.103125 15.55625 29.20625 14.8125 29.3125 C12 29 12 29 9.4375 27.0625 C4.07774549 20.32844946 1.03176179 11.30155433 -1 3 C-0.67 2.01 -0.34 1.02 0 0 Z " fill="#59A7A9" transform="translate(444,49)"/>
<path d="M0 0 C2.05078125 0.03255208 4.1015625 0.06510417 6.15234375 0.09765625 C6.48234375 1.08765625 6.81234375 2.07765625 7.15234375 3.09765625 C7.77109375 2.60265625 8.38984375 2.10765625 9.02734375 1.59765625 C13.43621775 -0.51860327 17.34034411 -0.48105211 22.15234375 0.09765625 C26.45090531 1.83537263 28.08758485 4.0178436 30.15234375 8.09765625 C30.49291992 10.8684082 30.49291992 10.8684082 30.4453125 13.8359375 C30.43081055 15.43598633 30.43081055 15.43598633 30.41601562 17.06835938 C30.39087891 18.17115234 30.36574219 19.27394531 30.33984375 20.41015625 C30.31954102 22.09334961 30.31954102 22.09334961 30.29882812 23.81054688 C30.26355755 26.57340854 30.2142661 29.33528454 30.15234375 32.09765625 C28.67327483 32.12454841 27.19406892 32.14400246 25.71484375 32.16015625 C24.47927734 32.17755859 24.47927734 32.17755859 23.21875 32.1953125 C21.15234375 32.09765625 21.15234375 32.09765625 20.15234375 31.09765625 C19.9949377 29.39201847 19.90140983 27.68038381 19.8359375 25.96875 C19.79404297 24.93427734 19.75214844 23.89980469 19.70898438 22.83398438 C19.66966797 21.74537109 19.63035156 20.65675781 19.58984375 19.53515625 C19.54666016 18.44267578 19.50347656 17.35019531 19.45898438 16.22460938 C19.35252307 13.51576061 19.25050859 10.80681633 19.15234375 8.09765625 C17.26515625 8.03578125 17.26515625 8.03578125 15.33984375 7.97265625 C14.63214844 7.94945312 13.92445313 7.92625 13.1953125 7.90234375 C10.83874656 7.96511163 10.83874656 7.96511163 8.15234375 10.09765625 C7.66085352 12.30139548 7.66085352 12.30139548 7.67578125 14.8515625 C7.629375 16.25631836 7.629375 16.25631836 7.58203125 17.68945312 C7.56398437 18.66978516 7.5459375 19.65011719 7.52734375 20.66015625 C7.47655375 22.59906435 7.42206968 24.53788043 7.36328125 26.4765625 C7.34571777 27.33838135 7.3281543 28.2002002 7.31005859 29.08813477 C7.15234375 31.09765625 7.15234375 31.09765625 6.15234375 32.09765625 C4.63306337 32.16945589 3.11066893 32.18157632 1.58984375 32.16015625 C0.76355469 32.15113281 -0.06273437 32.14210937 -0.9140625 32.1328125 C-1.55214844 32.12121094 -2.19023437 32.10960937 -2.84765625 32.09765625 C-2.87231129 27.70109452 -2.89049467 23.30456905 -2.90258789 18.90795898 C-2.90762746 17.41120707 -2.91445912 15.91446009 -2.9230957 14.41772461 C-2.93517784 12.27065818 -2.94088816 10.12365663 -2.9453125 7.9765625 C-2.95054932 6.68306885 -2.95578613 5.3895752 -2.96118164 4.05688477 C-2.8112469 0.14858599 -2.8112469 0.14858599 0 0 Z " fill="#053175" transform="translate(225.84765625,48.90234375)"/>
<path d="M0 0 C0.69544922 -0.020625 1.39089844 -0.04125 2.10742188 -0.0625 C7.2150123 -0.10065194 10.83543338 0.72373747 15.3125 3.25 C16.25 6.9375 16.25 6.9375 16.3125 10.25 C8.54779412 10.63823529 8.54779412 10.63823529 4.3125 7.25 C1.20060534 7.00104843 -0.87834526 6.84542263 -3.6875 8.25 C-3.6875 8.91 -3.6875 9.57 -3.6875 10.25 C-2.59050781 10.55292969 -1.49351562 10.85585938 -0.36328125 11.16796875 C1.0913935 11.59029368 2.54580717 12.01351863 4 12.4375 C4.72123047 12.63408203 5.44246094 12.83066406 6.18554688 13.03320312 C11.06275366 14.48077592 14.03362092 16.16410998 17.3125 20.25 C18.0571324 24.22137281 17.68516878 25.69099683 15.4375 29.0625 C11.8684778 32.73649344 9.17364483 32.44999302 4.27148438 32.53320312 C2.89959961 32.54770508 2.89959961 32.54770508 1.5 32.5625 C0.14551758 32.60600586 0.14551758 32.60600586 -1.23632812 32.65039062 C-5.55176818 32.69161085 -8.02471597 32.64285319 -11.8046875 30.40234375 C-13.6875 28.25 -13.6875 28.25 -14 25.5 C-13.896875 24.7575 -13.79375 24.015 -13.6875 23.25 C-12.429375 23.20875 -11.17125 23.1675 -9.875 23.125 C-9.16730469 23.10179688 -8.45960938 23.07859375 -7.73046875 23.0546875 C-5.6875 23.25 -5.6875 23.25 -2.6875 25.25 C-0.17165109 25.49150773 -0.17165109 25.49150773 2.5 25.375 C3.85158203 25.34792969 3.85158203 25.34792969 5.23046875 25.3203125 C5.91753906 25.29710938 6.60460937 25.27390625 7.3125 25.25 C6.9825 24.26 6.6525 23.27 6.3125 22.25 C3.02800502 21.08767872 -0.23778052 20.18140318 -3.609375 19.3203125 C-8.51440982 17.94978807 -11.39772151 16.35269673 -14.6875 12.25 C-15.3125 9.25 -15.3125 9.25 -14.6875 6.25 C-10.00792771 0.70840123 -6.96943641 0.05027547 0 0 Z " fill="#083376" transform="translate(302.6875,48.75)"/>
<path d="M0 0 C0.721875 0.00257812 1.44375 0.00515625 2.1875 0.0078125 C2.909375 0.00523438 3.63125 0.00265625 4.375 0 C6.1875 0.1328125 6.1875 0.1328125 7.1875 1.1328125 C7.25976502 2.98568752 7.2713122 4.84115128 7.25 6.6953125 C7.24097656 7.70722656 7.23195313 8.71914063 7.22265625 9.76171875 C7.21105469 10.54417969 7.19945312 11.32664062 7.1875 12.1328125 C7.82558594 12.12121094 8.46367187 12.10960937 9.12109375 12.09765625 C9.94738281 12.08863281 10.77367187 12.07960938 11.625 12.0703125 C12.44871094 12.05871094 13.27242188 12.04710937 14.12109375 12.03515625 C16.1875 12.1328125 16.1875 12.1328125 17.1875 13.1328125 C17.3125 15.6328125 17.3125 15.6328125 17.1875 18.1328125 C16.1875 19.1328125 16.1875 19.1328125 14.12109375 19.23046875 C13.29738281 19.21886719 12.47367187 19.20726563 11.625 19.1953125 C10.79871094 19.18628906 9.97242188 19.17726563 9.12109375 19.16796875 C8.16396484 19.15056641 8.16396484 19.15056641 7.1875 19.1328125 C7.32819196 21.25815909 7.47520921 23.38308779 7.625 25.5078125 C7.70621094 26.69117187 7.78742188 27.87453125 7.87109375 29.09375 C7.99834936 32.04800151 7.99834936 32.04800151 9.1875 34.1328125 C11.28091518 34.5618383 11.28091518 34.5618383 13.6875 34.6953125 C18.09144511 35.03675761 18.09144511 35.03675761 19.1875 36.1328125 C19.3125 38.6328125 19.3125 38.6328125 19.1875 41.1328125 C17.21123264 43.10907986 13.6240574 42.45215877 10.9375 42.5078125 C9.93396484 42.56388672 9.93396484 42.56388672 8.91015625 42.62109375 C4.98951912 42.69041739 3.36039414 42.27103535 0.265625 39.796875 C-3.06402549 35.52841329 -2.9602402 31.84210369 -2.9453125 26.65625 C-2.94626923 25.93039703 -2.94722595 25.20454407 -2.94821167 24.45669556 C-2.94889134 22.92523105 -2.94705189 21.39376364 -2.94287109 19.86230469 C-2.93750431 17.50970049 -2.94283116 15.15728588 -2.94921875 12.8046875 C-2.94855823 11.31770791 -2.94727762 9.83072844 -2.9453125 8.34375 C-2.94733673 7.63648773 -2.94936096 6.92922546 -2.95144653 6.20053101 C-2.922457 0.21414556 -2.922457 0.21414556 0 0 Z " fill="#58A6A8" transform="translate(421.8125,38.8671875)"/>
<path d="M0 0 C0.721875 0.00257812 1.44375 0.00515625 2.1875 0.0078125 C2.909375 0.00523438 3.63125 0.00265625 4.375 0 C6.1875 0.1328125 6.1875 0.1328125 7.1875 1.1328125 C7.25976502 2.98568752 7.2713122 4.84115128 7.25 6.6953125 C7.24097656 7.70722656 7.23195313 8.71914063 7.22265625 9.76171875 C7.21105469 10.54417969 7.19945312 11.32664062 7.1875 12.1328125 C10.4875 12.1328125 13.7875 12.1328125 17.1875 12.1328125 C17.1875 14.4428125 17.1875 16.7528125 17.1875 19.1328125 C13.8875 19.1328125 10.5875 19.1328125 7.1875 19.1328125 C7.32870714 21.07065515 7.47562873 23.00808205 7.625 24.9453125 C7.74681641 26.56373047 7.74681641 26.56373047 7.87109375 28.21484375 C8.08962461 31.19271155 8.08962461 31.19271155 9.1875 34.1328125 C10.14462891 34.22369141 10.14462891 34.22369141 11.12109375 34.31640625 C11.94738281 34.40019531 12.77367187 34.48398438 13.625 34.5703125 C14.44871094 34.65152344 15.27242188 34.73273438 16.12109375 34.81640625 C18.1875 35.1328125 18.1875 35.1328125 19.1875 36.1328125 C19.3125 38.6328125 19.3125 38.6328125 19.1875 41.1328125 C16.97816932 43.34214318 11.90283743 42.55697099 8.85302734 42.59912109 C5.89031658 42.54005191 3.67443846 42.43140684 1.1171875 40.86328125 C-2.60231364 36.28629032 -2.96143463 32.39581087 -2.9453125 26.75390625 C-2.94674759 25.66300438 -2.94674759 25.66300438 -2.94821167 24.55006409 C-2.94889235 23.01262322 -2.94704585 21.47517949 -2.94287109 19.93774414 C-2.93751351 17.5762695 -2.94282377 15.21498439 -2.94921875 12.85351562 C-2.9485581 11.36197874 -2.94727721 9.87044198 -2.9453125 8.37890625 C-2.94733673 7.66850693 -2.94936096 6.9581076 -2.95144653 6.22618103 C-2.92247644 0.21414698 -2.92247644 0.21414698 0 0 Z " fill="#0A3577" transform="translate(265.8125,38.8671875)"/>
<path d="M0 0 C11.22 0 22.44 0 34 0 C32.02 2.97 30.04 5.94 28 9 C26.89054497 11.03762657 25.81949963 13.0973411 24.8125 15.1875 C24.34457031 16.15042969 23.87664063 17.11335938 23.39453125 18.10546875 C22.93433594 19.06066406 22.47414063 20.01585938 22 21 C21.00279037 23.00139275 20.00355081 25.00177935 19 27 C16.34152355 26.92180952 14.55037381 26.46969074 12.5078125 24.7265625 C5.97106842 17.51243562 3.0477625 9.14328751 0 0 Z " fill="#FCFDFD" transform="translate(37,75)"/>
<path d="M0 0 C2.206875 -0.061875 4.41375 -0.12375 6.6875 -0.1875 C8.54955078 -0.23970703 8.54955078 -0.23970703 10.44921875 -0.29296875 C14.2457708 0.02027812 16.01467371 0.69242347 19 3 C22.24599479 7.86899219 21.71989239 13.31213736 21 19 C19.33581907 22.05615384 17.10221286 23.44889357 14 25 C9.33091139 25.13996069 4.67201378 25.04247285 0 25 C0 16.75 0 8.5 0 0 Z " fill="#F9FAFC" transform="translate(148,48)"/>
<path d="M0 0 C1.47906892 -0.02689216 2.95827483 -0.04634621 4.4375 -0.0625 C5.26121094 -0.07410156 6.08492188 -0.08570313 6.93359375 -0.09765625 C9 0 9 0 10 1 C10.10003289 3.13353174 10.13081048 5.27037542 10.1328125 7.40625 C10.13410156 8.70691406 10.13539063 10.00757813 10.13671875 11.34765625 C10.13357666 12.36883545 10.13357666 12.36883545 10.13037109 13.41064453 C10.1250224 15.49128515 10.1303168 17.57170989 10.13671875 19.65234375 C10.13542969 20.95300781 10.13414062 22.25367188 10.1328125 23.59375 C10.13168457 24.79708984 10.13055664 26.00042969 10.12939453 27.24023438 C10 30 10 30 9 31 C7.1875 31.1328125 7.1875 31.1328125 5 31.125 C4.278125 31.12757812 3.55625 31.13015625 2.8125 31.1328125 C1 31 1 31 0 30 C-0.08783542 27.78144736 -0.10694609 25.56011504 -0.09765625 23.33984375 C-0.0962413 22.67537735 -0.09482635 22.01091095 -0.09336853 21.3263092 C-0.08775518 19.19666101 -0.07520054 17.06711661 -0.0625 14.9375 C-0.05748671 13.49674631 -0.05292351 12.05599097 -0.04882812 10.61523438 C-0.03778145 7.07678898 -0.02050792 3.53840461 0 0 Z " fill="#54A4A6" transform="translate(402,50)"/>
<path d="M0 0 C-0.50789063 0.268125 -1.01578125 0.53625 -1.5390625 0.8125 C-7.86678147 4.41479694 -12.65485673 8.96457019 -15 16 C-15.8270469 27.09424347 -14.88717717 36.47245377 -11.09375 46.9375 C-10 50 -10 50 -10 52 C-11.65 52 -13.3 52 -15 52 C-15.82022612 49.64828157 -16.6312654 47.2940149 -17.4375 44.9375 C-17.66759766 44.28072266 -17.89769531 43.62394531 -18.13476562 42.94726562 C-21.37366496 33.4183299 -23.08281302 22.24804806 -18.90625 12.7734375 C-15.32425975 5.76385313 -8.79149683 -2.72839557 0 0 Z " fill="#446677" transform="translate(45,21)"/>
<path d="M0 0 C1.07507813 -0.00128906 2.15015625 -0.00257812 3.2578125 -0.00390625 C4.38960938 -0.00003906 5.52140625 0.00382812 6.6875 0.0078125 C7.81929688 0.00394531 8.95109375 0.00007813 10.1171875 -0.00390625 C11.19226563 -0.00261719 12.26734375 -0.00132813 13.375 0 C14.86580078 0.00169189 14.86580078 0.00169189 16.38671875 0.00341797 C18.6875 0.1328125 18.6875 0.1328125 19.6875 1.1328125 C19.8125 3.6328125 19.8125 3.6328125 19.6875 6.1328125 C18.6875 7.1328125 18.6875 7.1328125 16.27905273 7.24633789 C15.23692627 7.24110107 14.1947998 7.23586426 13.12109375 7.23046875 C11.99638672 7.22724609 10.87167969 7.22402344 9.71289062 7.22070312 C8.52888672 7.21232422 7.34488281 7.20394531 6.125 7.1953125 C4.93712891 7.19080078 3.74925781 7.18628906 2.52539062 7.18164062 C-0.42062226 7.16980925 -3.36653681 7.15332537 -6.3125 7.1328125 C-6.35504356 5.13326504 -6.35330783 3.13239614 -6.3125 1.1328125 C-4.59682208 -0.58286542 -2.33877265 0.00265425 0 0 Z " fill="#0F397A" transform="translate(329.3125,58.8671875)"/>
<path d="M0 0 C3.4375 0.8125 3.4375 0.8125 5.4375 3.8125 C5.4375 4.8025 5.4375 5.7925 5.4375 6.8125 C1.1475 6.8125 -3.1425 6.8125 -7.5625 6.8125 C-7.2325 5.1625 -6.9025 3.5125 -6.5625 1.8125 C-3.5625 -0.1875 -3.5625 -0.1875 0 0 Z " fill="#F0F3F7" transform="translate(201.5625,55.1875)"/>
<path d="M0 0 C0.721875 0.00257812 1.44375 0.00515625 2.1875 0.0078125 C2.909375 0.00523438 3.63125 0.00265625 4.375 0 C6.1875 0.1328125 6.1875 0.1328125 7.1875 1.1328125 C7.375 3.5703125 7.375 3.5703125 7.1875 6.1328125 C5.1875 8.1328125 5.1875 8.1328125 2.1875 8.3828125 C-0.8125 8.1328125 -0.8125 8.1328125 -2.8125 6.1328125 C-3 3.5703125 -3 3.5703125 -2.8125 1.1328125 C-1.8125 0.1328125 -1.8125 0.1328125 0 0 Z " fill="#5EA9AB" transform="translate(404.8125,38.8671875)"/>
<path d="M0 0 C1.32 0.33 2.64 0.66 4 1 C0.15717678 7.12415343 -3.72368078 13.16865561 -8 19 C-8.33 18.34 -8.66 17.68 -9 17 C-8.28735352 15.21240234 -8.28735352 15.21240234 -7.12890625 13.0859375 C-6.71962891 12.32539062 -6.31035156 11.56484375 -5.88867188 10.78125 C-5.45103516 9.9871875 -5.01339844 9.193125 -4.5625 8.375 C-4.12873047 7.57320313 -3.69496094 6.77140625 -3.24804688 5.9453125 C-2.17243012 3.95955849 -1.08952787 1.9781454 0 0 Z " fill="#EEEAE9" transform="translate(109,75)"/>
</svg>
