<?xml version="1.0" encoding="UTF-8"?>
<svg version="1.1" xmlns="http://www.w3.org/2000/svg" width="225" height="225">
<path d="M0 0 C74.25 0 148.5 0 225 0 C225 74.25 225 148.5 225 225 C150.75 225 76.5 225 0 225 C0 150.75 0 76.5 0 0 Z " fill="#534975" transform="translate(0,0)"/>
<path d="M0 0 C74.25 0 148.5 0 225 0 C225 74.25 225 148.5 225 225 C150.75 225 76.5 225 0 225 C0 150.75 0 76.5 0 0 Z M44.7421875 50.484375 C33.38331886 63.80698025 24.65289999 79.49775071 22 97 C21.89042969 97.67546875 21.78085937 98.3509375 21.66796875 99.046875 C21.35059741 101.36580161 21.15450971 103.66438811 21 106 C20.93425781 106.98226562 20.86851563 107.96453125 20.80078125 108.9765625 C20.26762958 124.67695993 23.43702333 144.09354067 32.56396484 157.25537109 C34.35423066 160.67702501 34.39886669 163.12974743 34.44140625 166.98046875 C34.45461411 167.63453201 34.46782196 168.28859528 34.48143005 168.96247864 C34.52210519 171.03753039 34.54394635 173.11214127 34.5625 175.1875 C34.58629397 177.2734382 34.61436678 179.35896176 34.65428162 181.44465637 C34.68973365 183.32906386 34.70963204 185.21374479 34.72875977 187.09838867 C34.70042622 190.12590927 34.70042622 190.12590927 37 192 C39.72111889 192.30538267 39.72111889 192.30538267 42.95959473 192.25396729 C44.229991 192.25960693 45.50038727 192.26524658 46.8092804 192.27105713 C48.2250677 192.26716816 49.64085445 192.2630718 51.05664062 192.25878906 C52.54135815 192.26149785 54.02607434 192.26505815 55.51078796 192.26940918 C59.54996454 192.27854886 63.58903927 192.27498246 67.6282177 192.26865101 C71.84870561 192.26359916 76.06918461 192.26828018 80.28967285 192.27142334 C87.37818981 192.27506537 94.46666514 192.27025769 101.55517578 192.26074219 C109.75880536 192.24985717 117.96233553 192.25338259 126.1659627 192.264395 C133.20037962 192.27346114 140.23476657 192.27475646 147.26918745 192.26951766 C151.47450357 192.26639424 155.67977292 192.26599877 159.88508606 192.27259064 C163.83802269 192.27835371 167.79083074 192.27438638 171.74375343 192.26280212 C173.19743956 192.26014995 174.65113645 192.26093008 176.10481834 192.26532745 C178.08334348 192.27076218 180.06189217 192.26275046 182.04040527 192.25396729 C183.14948997 192.25321323 184.25857468 192.25245918 185.40126801 192.25168228 C188.16151271 192.26225444 188.16151271 192.26225444 190 190 C190.27353592 187.08702072 190.27353592 187.08702072 190.203125 183.6640625 C190.22052734 181.72466797 190.22052734 181.72466797 190.23828125 179.74609375 C190.24848381 177.70120894 190.25032447 175.65761309 190.22998047 173.61279297 C190.16254915 164.74013686 191.12716779 158.3791398 195.51660156 150.62255859 C205.82444635 132.39891331 206.33861632 107.89734508 200.96484375 88.20703125 C197.05181066 75.45638858 191.22412165 64.49284487 183 54 C182.51917969 53.36449219 182.03835937 52.72898437 181.54296875 52.07421875 C167.37663727 34.31527295 144.19097759 23.8480399 122 21 C93.10893992 18.73983791 64.42015097 28.8318062 44.7421875 50.484375 Z " fill="#FEFEFE" transform="translate(0,0)"/>
<path d="M0 0 C16.12328192 13.67524435 28.11371723 33.93459306 31.30078125 54.9609375 C31.41035156 55.63640625 31.51992187 56.311875 31.6328125 57.0078125 C31.95018384 59.32673911 32.14627154 61.62532561 32.30078125 63.9609375 C32.36652344 64.94320312 32.43226563 65.92546875 32.5 66.9375 C33.03316749 82.63836328 29.86266416 102.04663562 20.74121094 115.21191406 C18.94384298 118.64214511 18.87122995 121.14984854 18.7890625 125.01171875 C18.7711113 125.67052536 18.7531601 126.32933197 18.73466492 127.00810242 C18.68081469 129.09648381 18.64675017 131.1846401 18.61328125 133.2734375 C18.58008555 134.6959947 18.54559381 136.11852229 18.50976562 137.54101562 C18.42510524 141.01410665 18.35817355 144.48727663 18.30078125 147.9609375 C17.97078125 147.9609375 17.64078125 147.9609375 17.30078125 147.9609375 C17.30078125 122.2209375 17.30078125 96.4809375 17.30078125 69.9609375 C6.74078125 69.9609375 -3.81921875 69.9609375 -14.69921875 69.9609375 C-14.00612818 66.49548463 -13.3102765 63.81747333 -12.13671875 60.5859375 C-9.77088359 52.7622846 -8.80841421 42.97687922 -12.38671875 35.3984375 C-13.11909457 34.22764985 -13.88871333 33.07906049 -14.69921875 31.9609375 C-15.40046875 30.9090625 -16.10171875 29.8571875 -16.82421875 28.7734375 C-21.66739166 23.51225264 -27.16672018 20.98548566 -34.29296875 20.58203125 C-40.63875333 20.43721814 -46.82136512 20.35699383 -52.98828125 22.00390625 C-56.23250215 22.84057375 -58.20125938 23.14860578 -61.44921875 22.7109375 C-62.27679688 22.60394531 -63.104375 22.49695313 -63.95703125 22.38671875 C-68.87931864 21.62243196 -73.79407843 20.82902934 -78.69921875 19.9609375 C-78.69921875 17.3209375 -78.69921875 14.6809375 -78.69921875 11.9609375 C-78.07273437 11.91195312 -77.44625 11.86296875 -76.80078125 11.8125 C-75.98351562 11.73773438 -75.16625 11.66296875 -74.32421875 11.5859375 C-73.10605469 11.48152344 -73.10605469 11.48152344 -71.86328125 11.375 C-69.49587684 11.13201162 -69.49587684 11.13201162 -67.69921875 8.9609375 C-67.47418064 6.41245394 -67.37481518 4.00830081 -67.38671875 1.4609375 C-67.37060547 0.77128906 -67.35449219 0.08164062 -67.33789062 -0.62890625 C-67.299962 -2.87163901 -67.299962 -2.87163901 -67.69921875 -6.0390625 C-72.17184602 -9.02081401 -76.43869675 -8.36833712 -81.69921875 -8.3515625 C-83.21515625 -8.37573242 -83.21515625 -8.37573242 -84.76171875 -8.40039062 C-85.73109375 -8.40103516 -86.70046875 -8.40167969 -87.69921875 -8.40234375 C-89.02953125 -8.40681519 -89.02953125 -8.40681519 -90.38671875 -8.41137695 C-93.17111243 -7.96308722 -94.0546116 -7.29998336 -95.69921875 -5.0390625 C-96.17644341 -1.94414719 -96.17644341 -1.94414719 -96.07421875 1.4609375 C-96.08195312 2.605625 -96.0896875 3.7503125 -96.09765625 4.9296875 C-95.93604601 7.91086308 -95.93604601 7.91086308 -94.4375 9.82421875 C-92.37988419 11.16976077 -90.95165887 11.44844241 -88.51171875 11.6484375 C-87.25359375 11.7515625 -85.99546875 11.8546875 -84.69921875 11.9609375 C-84.69921875 14.6009375 -84.69921875 17.2409375 -84.69921875 19.9609375 C-85.42367187 20.19167969 -86.148125 20.42242187 -86.89453125 20.66015625 C-96.31675934 23.83858786 -101.06492149 27.01140071 -105.71875 35.97265625 C-106.04230469 36.62878906 -106.36585937 37.28492188 -106.69921875 37.9609375 C-107.19421875 38.9509375 -107.19421875 38.9509375 -107.69921875 39.9609375 C-108.39557315 48.88797259 -107.87773186 56.17388334 -104.57421875 64.5703125 C-103.69921875 66.9609375 -103.69921875 66.9609375 -103.69921875 69.9609375 C-114.25921875 69.9609375 -124.81921875 69.9609375 -135.69921875 69.9609375 C-135.69921875 95.7009375 -135.69921875 121.4409375 -135.69921875 147.9609375 C-136.02921875 147.9609375 -136.35921875 147.9609375 -136.69921875 147.9609375 C-136.69809082 147.11499023 -136.69696289 146.26904297 -136.69580078 145.39746094 C-136.70584389 142.19851397 -136.74281613 139.00121766 -136.796875 135.80273438 C-136.81482206 134.42978438 -136.82264293 133.05665706 -136.81933594 131.68359375 C-136.80634388 122.79702933 -137.82932565 116.34528232 -142.22021484 108.57910156 C-152.51857129 90.3487327 -153.0388873 65.86213809 -147.6640625 46.16796875 C-143.75102941 33.41732608 -137.9233404 22.45378237 -129.69921875 11.9609375 C-129.21839844 11.32542969 -128.73757812 10.68992187 -128.2421875 10.03515625 C-114.25111744 -7.50408143 -91.62877681 -17.90558404 -69.81738281 -20.80761719 C-44.17065283 -23.60995698 -20.38756573 -15.40131594 0 0 Z " fill="#EFC28B" transform="translate(171.69921875,42.0390625)"/>
<path d="M0 0 C10.23 0 20.46 0 31 0 C35.49729005 7.87025759 35.49729005 7.87025759 35.7578125 12.07421875 C35.85811768 13.43788574 35.85811768 13.43788574 35.96044922 14.82910156 C36.01475098 15.77237305 36.06905273 16.71564453 36.125 17.6875 C36.27314241 19.65516835 36.42416002 21.62262244 36.578125 23.58984375 C36.64837891 24.52683105 36.71863281 25.46381836 36.79101562 26.42919922 C37.51373989 35.31972083 39.4294566 42.85421484 43 51 C43.33 51.99 43.66 52.98 44 54 C46.85901495 54.62995245 49.11464564 55.10171008 52 55 C55.7447008 52.55780383 57.15671011 50.21797391 58.10546875 45.97265625 C59.36460107 39.86994616 59.3862267 33.76246032 59.47851562 27.55273438 C59.67041876 21.1075975 60.94220488 17.00754671 64.625 11.625 C67.73652729 9.49606028 70.01340572 9.25857547 73.7421875 9.40625 C77.81000408 10.47598723 79.90595855 13.50743801 82 17 C82.93112001 19.79336003 83.16007161 21.6698894 83.24609375 24.5703125 C83.27896484 25.4675 83.31183594 26.3646875 83.34570312 27.2890625 C83.40613918 29.15615087 83.4635113 31.02334134 83.51757812 32.890625 C83.90241543 43.56148442 83.90241543 43.56148442 88.125 53.125 C91.22751152 55.14837708 91.82655248 55.22587785 95.3125 54.8125 C96.529375 54.544375 97.74625 54.27625 99 54 C104.85893695 39.9542449 107.06795962 25.38355458 107.4609375 10.25390625 C108 7 108 7 112 0 C122.56 0 133.12 0 144 0 C144 23.1 144 46.2 144 70 C96.48 70 48.96 70 0 70 C0 46.9 0 23.8 0 0 Z " fill="#FC909E" transform="translate(41,117)"/>
<path d="M0 0 C11 1 11 1 15 2 C19.30142707 2.21507135 22.4054823 2.16688216 26.5625 1 C34.39660659 -1.15631845 44.78942841 -1.58750381 52.29296875 1.89453125 C57.13055431 5.02733837 61.59460837 9.34125502 63.55859375 14.875 C65.84637437 25.88874032 63.32853233 36.09974797 57.40234375 45.546875 C56.61537109 46.73023437 56.61537109 46.73023437 55.8125 47.9375 C52.43081598 53.34646909 51.84224735 58.50967104 51.22851562 64.78027344 C50.76088764 69.32265976 50.1542446 73.84745701 49.5625 78.375 C49.45204346 79.3021582 49.34158691 80.22931641 49.2277832 81.18457031 C48.49693988 86.86970282 47.22295179 91.71197541 45 97 C44.67 97 44.34 97 44 97 C43.99857498 96.21818863 43.99714996 95.43637726 43.99568176 94.63087463 C43.9777868 87.23112399 43.93598289 79.83206369 43.86790943 72.43261814 C43.83374653 68.62923497 43.80854632 64.82624888 43.80444336 61.02270508 C43.80013712 57.34592661 43.77148533 53.67004224 43.72656822 49.99354362 C43.71366676 48.59711877 43.70925929 47.2005865 43.71384621 45.80410957 C43.73819266 36.13345303 42.77263734 29.08145506 36.0078125 21.87890625 C29.64510559 17.43029166 23.89563089 15.31934216 16 16 C9.33725574 17.51749336 5.8309894 19.83500757 0 24 C0 16.08 0 8.16 0 0 Z " fill="#FDFDFD" transform="translate(93,67)"/>
<path d="M0 0 C3.93784847 2.33809753 6.64263722 5.27223248 8.5625 9.4375 C9.20377058 12.17007838 9.41396308 14.61529851 9.5625 17.4375 C9.0675 17.169375 8.5725 16.90125 8.0625 16.625 C1.5681698 13.49727487 1.5681698 13.49727487 -5.4375 12.4375 C-5.4375 13.4275 -5.4375 14.4175 -5.4375 15.4375 C-4.77363281 15.72882813 -4.10976562 16.02015625 -3.42578125 16.3203125 C-2.54277344 16.73023437 -1.65976563 17.14015625 -0.75 17.5625 C0.12011719 17.95695312 0.99023438 18.35140625 1.88671875 18.7578125 C5.23948591 20.86246926 7.71011947 22.93805463 9.5625 26.4375 C10.24263595 30.2873952 10.14546464 34.06182933 10.05078125 37.9609375 C10.04370651 39.06225006 10.03663177 40.16356262 10.02934265 41.29824829 C10.00143226 44.80369995 9.93869606 48.30753395 9.875 51.8125 C9.84991297 54.19398729 9.82710052 56.57549971 9.80664062 58.95703125 C9.75161657 64.78440284 9.66802257 70.61083583 9.5625 76.4375 C6.33651146 70.49725969 6.50545853 64.04278772 6.37475586 57.43383789 C6.23842761 45.99793382 6.23842761 45.99793382 0.5625 36.4375 C-2.94542416 33.82460176 -6.20295833 32.63905782 -10.5 31.9375 C-15.52378829 32.7926129 -19.00673139 34.43295273 -21.95703125 38.56640625 C-25.14138493 44.13673099 -26.52542074 48.58396469 -26.68359375 55.0078125 C-26.71646484 56.06871094 -26.74933594 57.12960938 -26.78320312 58.22265625 C-26.84461276 60.45692186 -26.90187631 62.69130513 -26.95507812 64.92578125 C-26.98923828 65.98410156 -27.02339844 67.04242188 -27.05859375 68.1328125 C-27.0836499 69.10234863 -27.10870605 70.07188477 -27.13452148 71.07080078 C-27.4375 73.4375 -27.4375 73.4375 -29.4375 75.4375 C-29.59003358 68.58761227 -29.69487564 61.73816475 -29.76708984 54.88696289 C-29.79720339 52.55802036 -29.83810378 50.22919069 -29.89013672 47.90063477 C-29.96318729 44.54675412 -29.99701188 41.1943767 -30.0234375 37.83984375 C-30.05440521 36.80415756 -30.08537292 35.76847137 -30.11727905 34.70140076 C-30.12011814 28.55890492 -29.35076782 25.14866447 -24.97888184 20.72009277 C-22.95917384 19.03948203 -21.01865198 17.9303606 -18.5625 17 C-17.39074219 16.53787109 -17.39074219 16.53787109 -16.1953125 16.06640625 C-15.61523438 15.85886719 -15.03515625 15.65132812 -14.4375 15.4375 C-14.4375 14.4475 -14.4375 13.4575 -14.4375 12.4375 C-19.92139728 12.87621178 -23.00186358 14.23971561 -27.4375 17.4375 C-28.0975 17.4375 -28.7575 17.4375 -29.4375 17.4375 C-30.28113276 11.95388709 -28.30882171 8.78525238 -25.19140625 4.49609375 C-18.85848739 -2.93697583 -8.8492308 -3.87153848 0 0 Z " fill="#FAFAFB" transform="translate(122.4375,89.5625)"/>
<path d="M0 0 C0 32.01 0 64.02 0 97 C-2 96 -2 96 -2.80102539 93.77832031 C-5.08687476 84.59235299 -5.98356542 75.48968285 -6.72851562 66.0703125 C-7.36525155 59.15287364 -8.36375146 53.92535603 -12 48 C-13.04295937 45.95899339 -14.08474467 43.91738612 -15.125 41.875 C-15.62257813 40.90304688 -16.12015625 39.93109375 -16.6328125 38.9296875 C-20.2706306 31.13436301 -21.58359579 23.09383695 -19.3828125 14.625 C-16.59669483 8.31308741 -11.25517939 3.66375836 -5.1875 0.5625 C-3 0 -3 0 0 0 Z " fill="#F6F6F8" transform="translate(88,67)"/>
<path d="M0 0 C3.63 0 7.26 0 11 0 C11 23.1 11 46.2 11 70 C-36.52 70 -84.04 70 -133 70 C-133 69.67 -133 69.34 -133 69 C-89.11 69 -45.22 69 0 69 C0 46.23 0 23.46 0 0 Z " fill="#CE647D" transform="translate(174,117)"/>
<path d="M0 0 C28.71 0 57.42 0 87 0 C79.49323558 7.50676442 67.11207902 9.16819132 57 11 C55.51306641 11.28037109 55.51306641 11.28037109 53.99609375 11.56640625 C35.5343386 14.23818568 16.22566388 9.94067193 0 1 C0 0.67 0 0.34 0 0 Z " fill="#F1C58C" transform="translate(69,192)"/>
<path d="M0 0 C6.43283992 2.51037655 11.13025386 7.21081347 14.17578125 13.3828125 C17.31165166 23.34031571 14.45946335 32.96524308 10 42 C8.95898905 43.6595089 7.89731068 45.30628591 6.8125 46.9375 C3.43081598 52.34646909 2.84224735 57.50967104 2.22851562 63.78027344 C1.76088764 68.32265976 1.1542446 72.84745701 0.5625 77.375 C0.45204346 78.3021582 0.34158691 79.22931641 0.2277832 80.18457031 C-0.50306012 85.86970282 -1.77704821 90.71197541 -4 96 C-4.33 96 -4.66 96 -5 96 C-5 76.2 -5 56.4 -5 36 C-4.67 36 -4.34 36 -4 36 C-3.67 42.6 -3.34 49.2 -3 56 C-1.741875 53.504375 -0.48375 51.00875 0.8125 48.4375 C1.20284424 47.66591553 1.59318848 46.89433105 1.99536133 46.09936523 C7.29939297 35.53304478 10.1935301 27.08117686 9 15 C7.1286819 9.67797133 4.11887131 5.81376973 0 2 C0 1.34 0 0.68 0 0 Z " fill="#CDDBEC" transform="translate(142,68)"/>
<path d="M0 0 C1.18613892 0.00785522 1.18613892 0.00785522 2.39624023 0.01586914 C3.67724609 0.02070312 3.67724609 0.02070312 4.98413086 0.02563477 C5.88196289 0.03401367 6.77979492 0.04239258 7.70483398 0.05102539 C8.6065332 0.05553711 9.50823242 0.06004883 10.43725586 0.06469727 C12.67230988 0.07652295 14.90733 0.09445901 17.14233398 0.11352539 C17.14233398 3.74352539 17.14233398 7.37352539 17.14233398 11.11352539 C13.99644455 11.14036236 10.85078127 11.16028441 7.70483398 11.17602539 C6.35808594 11.18859375 6.35808594 11.18859375 4.98413086 11.20141602 C3.703125 11.20625 3.703125 11.20625 2.39624023 11.21118164 C1.60548096 11.21641846 0.81472168 11.22165527 0 11.22705078 C-1.85766602 11.11352539 -1.85766602 11.11352539 -2.85766602 10.11352539 C-2.95557171 8.61614415 -2.98741466 7.11409647 -2.98266602 5.61352539 C-2.98524414 4.79883789 -2.98782227 3.98415039 -2.99047852 3.14477539 C-2.81824452 0.5106084 -2.64114422 0.16140519 0 0 Z " fill="#9CCCEE" transform="translate(82.857666015625,37.886474609375)"/>
<path d="M0 0 C6.27 0 12.54 0 19 0 C19 3.63 19 7.26 19 11 C12.73 11 6.46 11 0 11 C0 10.67 0 10.34 0 10 C4.95 10 9.9 10 15 10 C15 7.03 15 4.06 15 1 C10.05 1 5.1 1 0 1 C0 0.67 0 0.34 0 0 Z " fill="#7597CF" transform="translate(81,38)"/>
</svg>
